<svg width="44" height="25" viewBox="0 0 44 25" fill="none" xmlns="http://www.w3.org/2000/svg">
<path d="M0.454128 24.1218V19.3627C2.97504 20.216 5.20838 20.6422 7.14894 20.6422C9.82851 20.6422 11.1694 19.8818 11.1694 18.3621C11.1694 17.7942 10.974 17.3187 10.5837 16.932C10.1825 16.5241 9.15981 15.9562 7.51471 15.2311C4.56198 13.9254 2.63631 12.8149 1.7408 11.895C0.579557 10.6804 0 9.14983 0 7.29968C0 4.91824 0.845247 3.10375 2.53622 1.85531C4.2058 0.618132 6.38318 0 9.06713 0C10.5475 0 12.6882 0.293339 15.4879 0.878127V5.4547C13.4049 4.56013 11.4701 4.11471 9.68297 4.11471C7.16772 4.11471 5.90899 4.85723 5.90899 6.34504C5.90899 6.90075 6.16337 7.35459 6.66947 7.70614C7.09212 7.99008 8.25555 8.59085 10.1567 9.51075C12.894 10.8141 14.7157 11.9504 15.6261 12.9158C16.703 14.0606 17.2414 15.5427 17.2414 17.3596C17.2414 19.9677 16.185 21.9601 14.0701 23.3315C12.3582 24.4457 10.1388 25 7.41292 25C5.11091 25 2.78884 24.7076 0.454128 24.1218Z" fill="white"/>
<path d="M33.3687 2.08433L42.8396 2.05666L42.8625 0H32.2167C29.8671 0.00564324 27.1336 0.547716 24.7631 2.26176C24.3022 2.59452 23.854 2.97233 23.4264 3.40131C22.9956 3.83215 22.5867 4.31088 22.2015 4.84453C22.2001 4.8492 22.1951 4.85299 22.1937 4.85579C20.5749 7.10862 19.8336 9.66887 19.8277 12.43C19.8263 12.9674 19.8537 13.5137 19.907 14.0675C19.959 14.6157 20.0406 15.1766 20.1487 15.7487C20.4067 17.122 20.8192 18.3564 21.3891 19.4584C21.9594 20.558 22.6852 21.5296 23.5728 22.3753C24.6094 23.3614 25.9534 24.2916 27.0744 24.6798C28.1225 25.043 29.5726 24.9956 30.6553 24.9919C30.5988 24.9989 39.8149 25.0059 42.9162 24.9919C42.8196 22.5321 42.9431 20.1586 43.0225 18.3681C43.0822 17.007 43.1341 15.8454 43.0822 14.8738V14.872C43.0247 13.7864 42.774 12.8346 42.2269 12.1662C41.6885 11.5077 40.8402 11.1088 39.5783 11.1121L38.372 11.1159L34.4692 11.1248L34.4747 12.0409L36.3288 12.0367H36.331C37.535 12.0536 38.1842 12.4807 38.5352 13.2241C38.8621 13.9159 38.8908 14.8579 38.8721 15.9928C38.8748 16.9704 38.8748 17.9311 38.8721 18.8825C38.8717 19.3987 38.8667 20.5665 38.8621 21.7957V22.0214L38.6465 22.0224L32.1593 22.0374L31.883 22.0383V22.0341L31.4549 22.0365H31.4431C31.2844 22.0289 31.1244 22.012 30.9626 21.9872C29.4167 21.7483 28.0139 20.7504 26.9622 19.2589C25.9238 17.787 25.2304 15.8346 25.0831 13.6587C25.0571 13.2617 25.0484 12.8547 25.0607 12.4384C25.1738 8.23974 26.5433 4.77601 29.3255 3.12393C29.8694 2.80008 30.4712 2.54522 31.1294 2.36781C31.7859 2.1923 32.4957 2.09607 33.2589 2.08527C33.2944 2.08433 33.3309 2.08433 33.3687 2.08433ZM22.2015 4.84453L22.2001 4.84875C22.2015 4.84454 22.2046 4.8403 22.2015 4.84453ZM22.1937 4.85579C22.1951 4.85579 22.1969 4.85299 22.1983 4.8492L22.1937 4.85579ZM22.1983 4.8492H22.2001H22.1983ZM22.2001 4.8492V4.84875V4.8492Z" fill="white"/>
</svg>
