<svg width="220" height="80" viewBox="0 0 220 80" fill="none" xmlns="http://www.w3.org/2000/svg">
<path d="M44.8038 38.8263H47.755L45.6379 35.0407C45.1888 34.2707 45.1888 33.2441 45.6379 32.4742L51.4119 22.529C51.7327 21.9515 52.3743 21.5665 53.0158 21.5665C53.6574 21.5665 54.3631 21.9515 54.6839 22.529L60.4579 32.4742C60.907 33.2441 60.907 34.2707 60.4579 35.0407L58.2766 38.8263L57.186 40.7512L55.7104 43.3177L54.6197 45.2426L54.1706 46.0125L55.6462 48.579L57.5709 45.2426L58.6616 43.3177L59.9447 41.072L60.1372 40.7512L61.2278 38.8263L62.6393 36.3239C63.5374 34.7199 63.5374 32.795 62.6393 31.1909L56.8652 21.2457C56.0953 19.8341 54.6839 19 53.0158 19C51.3478 19 49.9363 19.8341 49.1664 21.2457L43.3924 31.1909C42.4942 32.795 42.4942 34.7199 43.3924 36.3239L44.8038 38.8263Z" fill="url(#paint0_linear)"/>
<path d="M50.4498 52.4289L48.2685 56.2145C47.8194 56.9844 46.9854 57.4977 46.023 57.4977H34.5391C33.8333 57.4977 33.1918 57.1128 32.871 56.5353C32.5502 55.9578 32.5502 55.1879 32.871 54.6104L38.645 44.6652C39.0941 43.8952 39.9282 43.3819 40.8905 43.3819H45.2531H47.4986H50.4498H52.6953H53.5293L55.0049 40.8154H51.1555H48.91H45.9589H43.7134H40.8264C39.03 40.8154 37.2978 41.7779 36.3996 43.3819L30.6255 53.3272C29.7915 54.7387 29.7915 56.407 30.6255 57.8186C31.4596 59.2301 32.871 60.0643 34.5391 60.0643H46.023C47.8194 60.0643 49.5516 59.1018 50.4498 57.4977L51.8612 54.9954L50.5139 52.6855L50.4498 52.4289Z" fill="url(#paint1_linear)"/>
<path d="M75.4068 53.2627L69.6328 43.3175C68.7346 41.7134 67.0024 40.751 65.206 40.751H62.319L60.8434 43.3175H65.206C66.1042 43.3175 67.0024 43.8308 67.4515 44.6007L73.2255 54.546C73.5463 55.1234 73.5463 55.8934 73.2255 56.4708C72.9048 57.0483 72.2632 57.4333 71.5575 57.4333H60.0094C59.1112 57.4333 58.213 56.92 57.7639 56.15L55.5826 52.3644L54.4919 50.4396L53.0163 47.873L51.9257 45.9482L51.4766 45.1782H48.5254L50.4501 48.5147L51.5407 50.4396L53.0163 53.0061L54.107 54.9309L55.5184 57.4333C56.4166 59.0374 58.1488 59.9998 59.9452 59.9998H71.4292C73.0331 59.9998 74.5087 59.1657 75.3427 57.7541C76.2409 56.3425 76.2409 54.6743 75.4068 53.2627Z" fill="url(#paint2_linear)"/>
<path d="M97.856 36H99.176C99.462 36 99.704 35.78 99.704 35.494C99.704 33.624 98.318 31.38 94.622 31.38C91.256 31.38 89.32 32.832 89.32 35.538C89.32 41.5 97.658 39.19 97.658 42.82C97.658 44.514 96.492 45.13 94.578 45.13C91.74 45.13 91.3 43.172 91.234 42.446C91.212 42.226 91.036 41.984 90.75 41.984H89.43C89.144 41.984 88.924 42.204 88.924 42.49C88.924 44.426 90.486 47.22 94.578 47.22C97.262 47.22 100.012 46.076 100.012 42.82C100.012 36.88 91.674 39.234 91.674 35.538C91.674 33.888 92.84 33.47 94.578 33.47C96.624 33.47 97.174 34.482 97.328 35.538C97.394 35.846 97.57 36 97.856 36ZM114.374 35.78C112.856 35.78 111.712 36.396 110.942 37.562C110.238 36.308 109.072 35.758 107.708 35.758C106.212 35.758 105.376 36.44 104.848 37.254V36.528C104.848 36.22 104.628 36 104.342 36H103C102.714 36 102.494 36.22 102.494 36.528V46.494C102.494 46.78 102.714 47 103 47H104.342C104.628 47 104.848 46.78 104.848 46.494V40.884C104.848 39.08 105.222 37.804 107.092 37.804C108.786 37.804 109.182 38.86 109.182 40.862V46.494C109.182 46.78 109.402 47 109.688 47H111.03C111.316 47 111.536 46.78 111.536 46.494V40.862C111.536 38.97 111.976 37.804 113.758 37.804C115.562 37.804 115.87 38.992 115.87 40.862V46.494C115.87 46.78 116.09 47 116.376 47H117.718C118.004 47 118.224 46.78 118.224 46.494V41.082C118.224 37.914 117.608 35.78 114.374 35.78ZM129.262 46.494V40.048C129.262 37.958 128.624 35.78 124.906 35.78C121.782 35.78 121.122 37.562 120.88 38.728C120.858 38.816 120.836 38.948 120.836 38.992C120.836 39.234 121.012 39.388 121.254 39.388H122.64C122.882 39.388 122.992 39.234 123.058 39.036C123.212 38.376 123.498 37.804 124.906 37.804C126.534 37.804 127.062 38.662 127.062 39.982V40.554H124.796C123.278 40.554 120.374 40.796 120.374 43.898C120.374 46.34 122.068 47.22 123.916 47.22H124.268C125.456 47.22 126.6 46.714 127.062 45.768V46.494C127.062 46.78 127.282 47 127.568 47H128.756C129.042 47 129.262 46.78 129.262 46.494ZM124.862 42.292H127.062V42.842C127.062 44.03 126.776 45.35 124.73 45.35H124.378C123.476 45.35 122.574 44.998 122.574 43.898C122.574 42.622 123.476 42.292 124.862 42.292ZM132.605 47H133.903C134.211 47 134.431 46.78 134.431 46.494V41.522C134.431 39.454 135.399 38.354 137.225 38.354H137.555C137.841 38.354 138.061 38.134 138.061 37.848V36.528C138.061 36.22 137.841 36 137.555 36H137.269C135.839 36 134.871 36.726 134.343 37.65V36.528C134.343 36.22 134.101 36 133.815 36H132.605C132.319 36 132.099 36.22 132.099 36.528V46.494C132.099 46.78 132.319 47 132.605 47ZM144.287 47H145.453C145.739 47 145.959 46.78 145.959 46.494V45.372C145.959 45.086 145.739 44.844 145.453 44.844H144.683C143.385 44.844 143.231 44.382 143.231 43.128V38.09H145.453C145.739 38.09 145.959 37.87 145.959 37.584V36.528C145.959 36.22 145.739 36 145.453 36H143.231V33.668C143.231 33.36 142.989 33.14 142.703 33.14H141.427C141.141 33.14 140.921 33.36 140.921 33.668V34.614C140.921 35.758 140.459 36 139.381 36C139.095 36 138.875 36.22 138.875 36.528V37.584C138.875 37.87 139.095 38.09 139.381 38.09H140.899V43.48C140.899 45.746 141.647 47 144.287 47ZM161.708 36H163.028C163.314 36 163.556 35.78 163.556 35.494C163.556 33.624 162.17 31.38 158.474 31.38C155.108 31.38 153.172 32.832 153.172 35.538C153.172 41.5 161.51 39.19 161.51 42.82C161.51 44.514 160.344 45.13 158.43 45.13C155.592 45.13 155.152 43.172 155.086 42.446C155.064 42.226 154.888 41.984 154.602 41.984H153.282C152.996 41.984 152.776 42.204 152.776 42.49C152.776 44.426 154.338 47.22 158.43 47.22C161.114 47.22 163.864 46.076 163.864 42.82C163.864 36.88 155.526 39.234 155.526 35.538C155.526 33.888 156.692 33.47 158.43 33.47C160.476 33.47 161.026 34.482 161.18 35.538C161.246 35.846 161.422 36 161.708 36ZM167.621 31.468C166.785 31.468 166.191 32.062 166.191 32.898C166.191 33.734 166.785 34.328 167.621 34.328C168.479 34.328 169.073 33.734 169.073 32.898C169.073 32.062 168.479 31.468 167.621 31.468ZM166.961 47H168.303C168.589 47 168.809 46.78 168.809 46.494V36.528C168.809 36.22 168.589 36 168.303 36H166.961C166.675 36 166.455 36.22 166.455 36.528V46.494C166.455 46.78 166.675 47 166.961 47ZM175.805 47H176.971C177.257 47 177.477 46.78 177.477 46.494V45.372C177.477 45.086 177.257 44.844 176.971 44.844H176.201C174.903 44.844 174.749 44.382 174.749 43.128V38.09H176.971C177.257 38.09 177.477 37.87 177.477 37.584V36.528C177.477 36.22 177.257 36 176.971 36H174.749V33.668C174.749 33.36 174.507 33.14 174.221 33.14H172.945C172.659 33.14 172.439 33.36 172.439 33.668V34.614C172.439 35.758 171.977 36 170.899 36C170.613 36 170.393 36.22 170.393 36.528V37.584C170.393 37.87 170.613 38.09 170.899 38.09H172.417V43.48C172.417 45.746 173.165 47 175.805 47ZM181.385 42.578V42.27H187.919C188.205 42.27 188.447 42.05 188.447 41.764V40.73C188.447 37.782 186.379 35.78 183.761 35.78C181.121 35.78 179.031 37.716 179.031 40.796V42.226C179.031 45.306 181.143 47.22 183.783 47.22C185.411 47.22 187.325 46.428 188.139 44.294C188.183 44.184 188.227 44.03 188.227 43.92C188.227 43.722 188.095 43.568 187.875 43.568H186.467C186.159 43.568 186.027 43.766 185.939 43.876C185.367 45.042 184.553 45.196 183.783 45.196C182.419 45.196 181.385 44.162 181.385 42.578ZM186.137 40.598H181.385V40.356C181.385 38.75 182.397 37.804 183.761 37.804C185.125 37.804 186.137 38.75 186.137 40.356V40.598Z" fill="white"/>
<defs>
<linearGradient id="paint0_linear" x1="22.9779" y1="53.5855" x2="58.4366" y2="30.7021" gradientUnits="userSpaceOnUse">
<stop stop-color="#A54BF7"/>
<stop offset="1" stop-color="#48ADAD"/>
</linearGradient>
<linearGradient id="paint1_linear" x1="27.5406" y1="60.6553" x2="62.9992" y2="37.7719" gradientUnits="userSpaceOnUse">
<stop stop-color="#A54BF7"/>
<stop offset="1" stop-color="#48ADAD"/>
</linearGradient>
<linearGradient id="paint2_linear" x1="33.6371" y1="70.1013" x2="69.0957" y2="47.218" gradientUnits="userSpaceOnUse">
<stop stop-color="#A54BF7"/>
<stop offset="1" stop-color="#48ADAD"/>
</linearGradient>
</defs>
</svg>
