<svg width="47" height="42" viewBox="0 0 47 42" fill="none" xmlns="http://www.w3.org/2000/svg">
<path d="M14.8038 19.8263H17.755L15.6379 16.0407C15.1888 15.2707 15.1888 14.2441 15.6379 13.4742L21.4119 3.52895C21.7327 2.95149 22.3743 2.56651 23.0158 2.56651C23.6574 2.56651 24.3631 2.95149 24.6839 3.52895L30.4579 13.4742C30.907 14.2441 30.907 15.2707 30.4579 16.0407L28.2766 19.8263L27.186 21.7512L25.7104 24.3177L24.6197 26.2426L24.1706 27.0125L25.6462 29.579L27.5709 26.2426L28.6616 24.3177L29.9447 22.072L30.1372 21.7512L31.2278 19.8263L32.6393 17.3239C33.5374 15.7199 33.5374 13.795 32.6393 12.1909L26.8652 2.2457C26.0953 0.834116 24.6839 0 23.0158 0C21.3478 0 19.9363 0.834116 19.1664 2.2457L13.3924 12.1909C12.4942 13.795 12.4942 15.7199 13.3924 17.3239L14.8038 19.8263Z" fill="url(#paint0_linear)"/>
<path d="M20.4498 33.4289L18.2685 37.2145C17.8194 37.9844 16.9854 38.4977 16.023 38.4977H4.53905C3.83333 38.4977 3.19177 38.1128 2.87099 37.5353C2.55021 36.9578 2.55021 36.1879 2.87099 35.6104L8.64505 25.6652C9.09414 24.8952 9.92817 24.3819 10.8905 24.3819H15.2531H17.4986H20.4498H22.6953H23.5293L25.0049 21.8154H21.1555H18.91H15.9589H13.7134H10.8264C9.02999 21.8154 7.29777 22.7779 6.39958 24.3819L0.625523 34.3272C-0.208508 35.7387 -0.208508 37.407 0.625523 38.8186C1.45955 40.2301 2.87099 41.0643 4.53905 41.0643H16.023C17.8194 41.0643 19.5516 40.1018 20.4498 38.4977L21.8612 35.9954L20.5139 33.6855L20.4498 33.4289Z" fill="url(#paint1_linear)"/>
<path d="M45.4068 34.2627L39.6328 24.3175C38.7346 22.7134 37.0024 21.751 35.206 21.751H32.319L30.8434 24.3175H35.206C36.1042 24.3175 37.0024 24.8308 37.4515 25.6007L43.2255 35.546C43.5463 36.1234 43.5463 36.8934 43.2255 37.4708C42.9048 38.0483 42.2632 38.4333 41.5575 38.4333H30.0094C29.1112 38.4333 28.213 37.92 27.7639 37.15L25.5826 33.3644L24.4919 31.4396L23.0163 28.873L21.9257 26.9482L21.4766 26.1782H18.5254L20.4501 29.5147L21.5407 31.4396L23.0163 34.0061L24.107 35.9309L25.5184 38.4333C26.4166 40.0374 28.1488 40.9998 29.9452 40.9998H41.4292C43.0331 40.9998 44.5087 40.1657 45.3427 38.7541C46.2409 37.3425 46.2409 35.6743 45.4068 34.2627Z" fill="url(#paint2_linear)"/>
<defs>
<linearGradient id="paint0_linear" x1="-7.02212" y1="34.5855" x2="28.4366" y2="11.7021" gradientUnits="userSpaceOnUse">
<stop stop-color="#A54BF7"/>
<stop offset="1" stop-color="#48ADAD"/>
</linearGradient>
<linearGradient id="paint1_linear" x1="-2.45943" y1="41.6553" x2="32.9992" y2="18.7719" gradientUnits="userSpaceOnUse">
<stop stop-color="#A54BF7"/>
<stop offset="1" stop-color="#48ADAD"/>
</linearGradient>
<linearGradient id="paint2_linear" x1="3.63711" y1="51.1013" x2="39.0957" y2="28.218" gradientUnits="userSpaceOnUse">
<stop stop-color="#A54BF7"/>
<stop offset="1" stop-color="#48ADAD"/>
</linearGradient>
</defs>
</svg>
