<svg width="45" height="44" viewBox="0 0 45 44" fill="none" xmlns="http://www.w3.org/2000/svg">
<path d="M15.0915 38.4999H4.91657C2.38841 38.4999 0.333252 36.4447 0.333252 33.9166V4.58332C0.333252 2.05516 2.38841 0 4.91657 0H26.9165C29.4447 0 31.4998 2.05516 31.4998 4.58332V17.4716C31.4998 17.9776 31.0891 18.3883 30.5832 18.3883C30.0772 18.3883 29.6665 17.9794 29.6665 17.4716V4.58332C29.6665 3.06716 28.4327 1.83333 26.9165 1.83333H4.91657C3.40041 1.83333 2.16658 3.06716 2.16658 4.58332V33.9166C2.16658 35.4327 3.40041 36.6665 4.91657 36.6665H15.0915C15.5975 36.6665 16.0082 37.0772 16.0082 37.5832C16.0082 38.0892 15.5975 38.4999 15.0915 38.4999Z" fill="#3C3C3C"/>
<path d="M25.0832 16.4998H6.74992C6.24392 16.4998 5.83325 16.0892 5.83325 15.5832C5.83325 15.0772 6.24392 14.6665 6.74992 14.6665H25.0832C25.5892 14.6665 25.9999 15.0772 25.9999 15.5832C25.9999 16.0892 25.5892 16.4998 25.0832 16.4998Z" fill="#3C3C3C"/>
<path d="M17.7499 23.8333H6.74992C6.24392 23.8333 5.83325 23.4227 5.83325 22.9167C5.83325 22.4107 6.24392 22 6.74992 22H17.7499C18.2559 22 18.6666 22.4107 18.6666 22.9167C18.6666 23.4227 18.2559 23.8333 17.7499 23.8333Z" fill="#3C3C3C"/>
<path d="M15.9166 9.16682H6.74992C6.24392 9.16682 5.83325 8.75616 5.83325 8.25016C5.83325 7.74416 6.24392 7.3335 6.74992 7.3335H15.9166C16.4226 7.3335 16.8332 7.74416 16.8332 8.25016C16.8332 8.75616 16.4226 9.16682 15.9166 9.16682Z" fill="#3C3C3C"/>
<path d="M41.5831 43.9999H21.4165C19.9003 43.9999 18.6665 42.7661 18.6665 41.2499C18.6665 40.7109 18.815 40.2068 19.0973 39.7851L29.1586 23.32C29.6335 22.5115 30.5336 22 31.4998 22C32.466 22 33.3661 22.5115 33.8483 23.3347L43.9224 39.8199C44.1846 40.2068 44.3331 40.7109 44.3331 41.2499C44.3331 42.7661 43.0993 43.9999 41.5831 43.9999ZM31.4998 23.8333C31.1808 23.8333 30.8875 23.9983 30.7335 24.2605L20.641 40.7751C20.5402 40.9254 20.4998 41.0776 20.4998 41.2499C20.4998 41.7541 20.9123 42.1666 21.4165 42.1666H41.5831C42.0873 42.1666 42.4998 41.7541 42.4998 41.2499C42.4998 41.0776 42.4594 40.9254 42.3806 40.8099L32.2753 24.2752C32.1121 23.9983 31.8188 23.8333 31.4998 23.8333Z" fill="#3C3C3C"/>
<path d="M31.4997 36.6666C30.9937 36.6666 30.583 36.256 30.583 35.75V28.4167C30.583 27.9107 30.9937 27.5 31.4997 27.5C32.0057 27.5 32.4163 27.9107 32.4163 28.4167V35.75C32.4163 36.256 32.0057 36.6666 31.4997 36.6666Z" fill="#3C3C3C"/>
<path d="M31.4997 40.3333C32.0059 40.3333 32.4163 39.9229 32.4163 39.4167C32.4163 38.9104 32.0059 38.5 31.4997 38.5C30.9934 38.5 30.583 38.9104 30.583 39.4167C30.583 39.9229 30.9934 40.3333 31.4997 40.3333Z" fill="#3C3C3C"/>
</svg>
